<svg width="430" height="44" viewBox="0 0 430 44" fill="none" xmlns="http://www.w3.org/2000/svg">
<path d="M0 43.1235L28.7221 3.74395C32.388 -1.28241 39.9086 -1.24462 43.4989 3.83844L71.3895 43.1235H21.8628L28.8544 32.5039H48.1473L35.5247 15.2895L14.9468 43.1046H0V43.1235Z" fill="#F7F7F7"/>
<path d="M216.871 43.1235L245.593 3.74395C249.259 -1.28241 256.779 -1.24462 260.37 3.83844L288.26 43.1235H238.734L245.725 32.5039H265.018L252.396 15.2895L231.818 43.1046H216.871V43.1235Z" fill="#F7F7F7"/>
<path d="M118.762 33.0708L111.412 43.1046H92.4398C87.6969 43.1046 82.9351 42.3488 78.5134 40.6292C72.2399 38.1727 65.2672 33.3542 64.6625 24.0762C64.2468 17.6516 66.4388 12.8331 69.3488 9.31837C73.7327 4.02746 80.4597 1.23083 87.319 1.23083H119.726L112.659 11.0379H88.8685C82.8595 11.0379 78.0032 15.8942 78.0032 21.9032C78.0032 27.8555 82.8028 32.7118 88.774 32.7685L118.781 33.0519L118.762 33.0708Z" fill="#F7F7F7"/>
<path d="M369.797 33.0708L362.447 43.1046H343.475C338.732 43.1046 333.97 42.3488 329.549 40.6292C323.275 38.1727 316.302 33.3542 315.698 24.0762C315.282 17.6516 317.474 12.8331 320.384 9.31837C324.768 4.02746 331.495 1.23083 338.354 1.23083H370.761L363.694 11.0379H339.904C333.895 11.0379 329.038 15.8942 329.038 21.9032C329.038 27.8555 333.838 32.7118 339.809 32.7685L369.816 33.0519L369.797 33.0708Z" fill="#F7F7F7"/>
<path d="M117.477 11.4347L124.79 1.3064H211.75C220.158 1.3064 226.98 8.12791 226.98 16.5367C226.98 24.9455 220.158 31.767 211.75 31.767H183.802V43.1046H170.688V21.7142H209.652C212.524 21.7142 214.83 19.39 214.83 16.5367C214.83 13.6645 212.505 11.3591 209.652 11.3591H150.035V43.4448H137.563V11.4347H117.458H117.477Z" fill="#F7F7F7"/>
<path d="M290.641 17.2924L283.876 26.2113H304.983L311.011 17.349L290.641 17.2924Z" fill="#F7F7F7"/>
<path d="M375.674 1.2497V43.1613H389.411V25.3801L410.216 43.1613H430L402.015 20.9017L427.959 1.30639H408.893L389.298 17.1035V1.21191L375.674 1.2497Z" fill="#F7F7F7"/>
</svg>
