<svg width="22" height="22" viewBox="0 0 22 22" fill="none" xmlns="http://www.w3.org/2000/svg">
<path d="M10.9999 20.167C16.0625 20.167 20.1666 18.3201 20.1666 16.042C20.1666 14.8809 19.1005 13.8318 17.3849 13.0822C16.338 15.0034 14.7415 16.6594 12.7136 17.526C11.6236 17.9918 10.3762 17.9918 9.2862 17.526C7.25834 16.6594 5.66186 15.0034 4.61495 13.0822C2.89929 13.8318 1.83325 14.8809 1.83325 16.042C1.83325 18.3201 5.93731 20.167 10.9999 20.167Z" fill="#2D2D2D"/>
<path fill-rule="evenodd" clip-rule="evenodd" d="M4.58325 7.80506C4.58325 4.50696 7.45609 1.83331 10.9999 1.83331C14.5437 1.83331 17.4166 4.50696 17.4166 7.80506C17.4166 11.0773 15.3686 14.8957 12.1733 16.2612C11.4284 16.5796 10.5714 16.5796 9.82652 16.2612C6.63123 14.8957 4.58325 11.0773 4.58325 7.80506ZM10.9999 10.0833C12.0124 10.0833 12.8333 9.2625 12.8333 8.24998C12.8333 7.23746 12.0124 6.41665 10.9999 6.41665C9.9874 6.41665 9.16658 7.23746 9.16658 8.24998C9.16658 9.2625 9.9874 10.0833 10.9999 10.0833Z" fill="#2D2D2D"/>
</svg>
