<svg width="11" height="6" viewBox="0 0 11 6" fill="none" xmlns="http://www.w3.org/2000/svg">
<path d="M5.84268 5.8583L10.8693 0.766688C10.9532 0.681732 11 0.568862 11 0.451489C11 0.334116 10.9532 0.221246 10.8693 0.13629L10.8636 0.130808C10.8229 0.0894804 10.774 0.0565719 10.7197 0.0340843C10.6654 0.0115967 10.607 4.42476e-07 10.5479 4.37313e-07C10.4888 4.32149e-07 10.4304 0.0115966 10.3761 0.0340843C10.3218 0.0565719 10.2729 0.0894803 10.2322 0.130808L5.49905 4.92549L0.767808 0.130807C0.727128 0.0894795 0.678161 0.0565711 0.623889 0.0340834C0.569616 0.0115958 0.51117 -4.40126e-07 0.452107 -4.45289e-07C0.393044 -4.50452e-07 0.334597 0.0115957 0.280325 0.0340834C0.226052 0.056571 0.177086 0.0894795 0.136406 0.130807L0.130726 0.136289C0.0468126 0.221245 4.95327e-07 0.334115 4.85066e-07 0.451488C4.74805e-07 0.568861 0.0468125 0.681731 0.130726 0.766687L5.15732 5.8583C5.20153 5.90308 5.25469 5.93872 5.3136 5.96308C5.3725 5.98744 5.43592 6 5.5 6C5.56408 6 5.6275 5.98744 5.6864 5.96308C5.74531 5.93872 5.79848 5.90308 5.84268 5.8583Z" fill="#345E9F"/>
</svg>
