<svg width="18" height="12" viewBox="0 0 18 12" fill="none" xmlns="http://www.w3.org/2000/svg">
<path fill-rule="evenodd" clip-rule="evenodd" d="M8.83383 11.2663H9.92517C9.92517 11.2663 10.2526 11.2099 10.4163 11.0408C10.58 10.8716 10.58 10.5333 10.58 10.5333C10.58 10.5333 10.58 9.06742 11.2348 8.8419C11.8896 8.61637 12.7627 10.3078 13.6357 10.928C14.2906 11.4354 14.7817 11.3227 14.7817 11.3227L17.1826 11.2663C17.1826 11.2663 18.4377 11.2099 17.8374 10.1387C17.7829 10.0823 17.51 9.40571 16.0367 7.99618C14.5088 6.53028 14.7271 6.81218 16.5278 4.27504C17.6192 2.75276 18.0557 1.85066 17.9466 1.39962C17.8374 1.00495 17.0189 1.11771 17.0189 1.11771H14.2906C14.2906 1.11771 14.0723 1.06133 13.9632 1.17409C13.7994 1.28686 13.7449 1.456 13.7449 1.456C13.7449 1.456 13.3083 2.64 12.7627 3.65485C11.5622 5.74095 11.0711 5.85371 10.9074 5.74095C10.4708 5.45904 10.58 4.50057 10.58 3.88038C10.58 1.85066 10.9074 1.00495 9.97974 0.779427C9.70691 0.723046 9.48864 0.666666 8.7247 0.666666C7.74249 0.666666 6.92398 0.666666 6.48744 0.892189C6.16004 1.06133 5.94177 1.39962 6.10547 1.39962C6.26917 1.39962 6.70571 1.51238 6.92398 1.79428C7.14225 2.30171 7.14225 3.14743 7.14225 3.14743C7.14225 3.14743 7.30595 5.5718 6.76027 5.85371C6.3783 6.07923 5.8872 5.62819 4.79585 3.71124C4.25018 2.75276 3.81364 1.62514 3.81364 1.62514C3.81364 1.62514 3.75908 1.39962 3.59538 1.28686C3.43167 1.17409 3.15884 1.11771 3.15884 1.11771H0.594177C0.594177 1.11771 0.212206 1.11771 0.0485042 1.28686C-0.0606303 1.456 0.0485042 1.7379 0.0485042 1.7379C0.0485042 1.7379 2.06749 6.58666 4.35932 9.06742C6.48744 11.4354 8.83383 11.2663 8.83383 11.2663Z" fill="white"/>
</svg>
