<svg width="20" height="20" viewBox="0 0 20 20" fill="none" xmlns="http://www.w3.org/2000/svg">
<path fill-rule="evenodd" clip-rule="evenodd" d="M3.93141 2.57676C4.95323 1.50097 6.64341 1.70253 7.48807 2.89718L8.5389 4.38342C9.21451 5.33897 9.15744 6.66745 8.35113 7.51634L8.14708 7.73116C8.14651 7.73265 8.14592 7.73426 8.1453 7.736C8.13452 7.7663 8.10725 7.86278 8.13408 8.04591C8.18971 8.42552 8.48275 9.19693 9.67246 10.4495C10.8659 11.706 11.5898 12.0021 11.9253 12.0566C12.07 12.0801 12.1457 12.0597 12.1698 12.0512L12.5103 11.6926C13.2385 10.926 14.3738 10.775 15.2892 11.3019L16.8813 12.2183C18.242 13.0015 18.5587 14.9175 17.4713 16.0624L16.2875 17.3088C15.918 17.6977 15.4142 18.0298 14.7917 18.0912C13.2718 18.2412 9.75082 18.0458 6.05967 14.1597C2.61537 10.5335 1.96105 7.37945 1.87834 5.83843L2.43342 5.80864L1.87834 5.83843C1.83747 5.07704 2.17687 4.42396 2.62341 3.95384L3.93141 2.57676ZM6.46742 3.61882C6.04046 3.01494 5.27343 2.97891 4.83774 3.43762L3.52974 4.8147C3.25358 5.10544 3.10868 5.43868 3.12654 5.77144C3.19407 7.02962 3.73589 9.89819 6.96599 13.2989C10.3528 16.8646 13.473 16.9653 14.6689 16.8473C14.9053 16.8239 15.1486 16.6927 15.3811 16.4479L16.5649 15.2016C17.0756 14.664 16.9417 13.6954 16.2577 13.3017L14.6656 12.3853C14.2384 12.1393 13.7379 12.2153 13.4167 12.5535L13.0371 12.9531L12.5978 12.5358C13.0371 12.9531 13.0365 12.9537 13.036 12.9543L13.0348 12.9555L13.0323 12.9581L13.027 12.9635L13.0151 12.9753C13.0065 12.9836 12.9966 12.9927 12.9854 13.0025C12.963 13.0222 12.9353 13.0446 12.902 13.0682C12.8352 13.1155 12.7463 13.1676 12.6338 13.212C12.4038 13.3027 12.1001 13.3513 11.7249 13.2904C10.9936 13.1716 10.0352 12.6464 8.76614 11.3103C7.49335 9.97032 7.00622 8.97055 6.89729 8.22713C6.84185 7.84873 6.88622 7.54574 6.96764 7.31693C7.00768 7.20441 7.05495 7.11469 7.09855 7.04656C7.12029 7.01258 7.14101 6.98413 7.15933 6.96099C7.16849 6.94941 7.17705 6.93916 7.18485 6.9302L7.19595 6.91771L7.20104 6.91218L7.20346 6.90959L7.20463 6.90834C7.20521 6.90773 7.20578 6.90713 7.64884 7.32794L7.20579 6.90712L7.4448 6.65548C7.81608 6.2646 7.87003 5.60261 7.51824 5.10506L6.46742 3.61882Z" fill="#2D2D2D"/>
<path d="M11.0497 1.56673C11.1048 1.22599 11.4269 0.994843 11.7677 1.05001C11.7888 1.05404 11.8566 1.06673 11.8922 1.07465C11.9633 1.09048 12.0625 1.11486 12.1862 1.15089C12.4335 1.22292 12.779 1.34159 13.1937 1.53171C14.0239 1.91233 15.1287 2.57817 16.2752 3.72467C17.4217 4.87117 18.0876 5.97602 18.4682 6.80625C18.6583 7.22093 18.777 7.56643 18.849 7.81375C18.885 7.93742 18.9094 8.03661 18.9253 8.10772C18.9332 8.14327 18.939 8.17182 18.943 8.19291L18.9478 8.21891C19.003 8.55965 18.7739 8.89508 18.4332 8.95025C18.0934 9.00525 17.7733 8.77523 17.7168 8.43608C17.7151 8.42698 17.7103 8.40251 17.7051 8.37944C17.6949 8.33329 17.6771 8.2601 17.6489 8.16331C17.5925 7.96969 17.4945 7.68192 17.3319 7.32719C17.0071 6.6186 16.4229 5.64011 15.3913 4.60856C14.3598 3.577 13.3813 2.99284 12.6727 2.66798C12.318 2.50535 12.0302 2.40741 11.8366 2.35101C11.7398 2.32282 11.6181 2.2949 11.572 2.28462C11.2328 2.2281 10.9946 1.9065 11.0497 1.56673Z" fill="#2D2D2D"/>
<path fill-rule="evenodd" clip-rule="evenodd" d="M11.2383 4.44128C11.3331 4.10939 11.6791 3.9172 12.011 4.01203L11.8393 4.61298C12.011 4.01203 12.0113 4.01212 12.0116 4.0122L12.0122 4.01238L12.0134 4.01274L12.0162 4.01356L12.0227 4.01548L12.0392 4.02062C12.0517 4.02464 12.0674 4.02987 12.0861 4.03651C12.1236 4.04979 12.173 4.06868 12.2337 4.09468C12.3551 4.14671 12.521 4.22706 12.7248 4.34765C13.1326 4.58906 13.6895 4.99004 14.3436 5.64418C14.9978 6.29832 15.3987 6.85515 15.6401 7.26303C15.7607 7.46679 15.8411 7.63268 15.8931 7.75408C15.9191 7.81476 15.938 7.86422 15.9513 7.90165C15.9579 7.92036 15.9632 7.93605 15.9672 7.94861L15.9723 7.9651L15.9742 7.97156L15.975 7.97434L15.9754 7.97562L15.9756 7.97623C15.9757 7.97652 15.9758 7.97682 15.3748 8.14852L15.9758 7.97682C16.0706 8.30871 15.8784 8.65464 15.5465 8.74947C15.2174 8.84349 14.8746 8.65536 14.7763 8.32864L14.7732 8.31966C14.7688 8.30714 14.7596 8.28249 14.7442 8.24648C14.7133 8.17454 14.6574 8.05685 14.5644 7.89969C14.3786 7.58573 14.043 7.11136 13.4597 6.52807C12.8764 5.94477 12.4021 5.60918 12.0881 5.42338C11.9309 5.33036 11.8133 5.27445 11.7413 5.24361C11.7053 5.22818 11.6807 5.21899 11.6681 5.21455L11.6591 5.21147C11.3324 5.11323 11.1443 4.77036 11.2383 4.44128Z" fill="#2D2D2D"/>
</svg>
