<svg width="20" height="20" viewBox="0 0 20 20" fill="none" xmlns="http://www.w3.org/2000/svg">
<path fill-rule="evenodd" clip-rule="evenodd" d="M8.2864 2.70834H11.7138C13.2452 2.70833 14.4583 2.70832 15.4076 2.83596C16.3846 2.96731 17.1754 3.24408 17.799 3.86771C18.4227 4.49135 18.6994 5.28214 18.8308 6.25916C18.9584 7.2085 18.9584 8.42153 18.9584 9.953V10.047C18.9584 11.5785 18.9584 12.7915 18.8308 13.7409C18.6994 14.7179 18.4227 15.5087 17.799 16.1323C17.1754 16.7559 16.3846 17.0327 15.4076 17.1641C14.4583 17.2917 13.2452 17.2917 11.7138 17.2917H8.28641C6.75494 17.2917 5.54191 17.2917 4.59256 17.1641C3.61554 17.0327 2.82475 16.7559 2.20112 16.1323C1.57748 15.5087 1.30072 14.7179 1.16936 13.7409C1.04172 12.7915 1.04174 11.5785 1.04175 10.047V9.953C1.04174 8.42153 1.04172 7.2085 1.16936 6.25916C1.30072 5.28214 1.57748 4.49135 2.20112 3.86771C2.82475 3.24408 3.61554 2.96731 4.59256 2.83596C5.54191 2.70832 6.75493 2.70833 8.2864 2.70834ZM4.75912 4.07481C3.92071 4.18753 3.43768 4.39892 3.085 4.7516C2.73233 5.10427 2.52094 5.58731 2.40821 6.42572C2.29308 7.2821 2.29175 8.41099 2.29175 10C2.29175 11.589 2.29308 12.7179 2.40821 13.5743C2.52094 14.4127 2.73233 14.8958 3.085 15.2484C3.43768 15.6011 3.92071 15.8125 4.75912 15.9252C5.61551 16.0403 6.7444 16.0417 8.33341 16.0417H11.6667C13.2558 16.0417 14.3847 16.0403 15.241 15.9252C16.0794 15.8125 16.5625 15.6011 16.9152 15.2484C17.2678 14.8958 17.4792 14.4127 17.5919 13.5743C17.7071 12.7179 17.7084 11.589 17.7084 10C17.7084 8.41099 17.7071 7.2821 17.5919 6.42572C17.4792 5.58731 17.2678 5.10427 16.9152 4.7516C16.5625 4.39892 16.0794 4.18753 15.241 4.07481C14.3847 3.95967 13.2558 3.95834 11.6667 3.95834H8.33342C6.7444 3.95834 5.61551 3.95967 4.75912 4.07481ZM4.51994 6.26656C4.74092 6.00139 5.13502 5.96556 5.4002 6.18654L7.19928 7.68577C7.97674 8.33366 8.51652 8.78202 8.97223 9.07512C9.41337 9.35884 9.71252 9.45407 10.0001 9.45407C10.2876 9.45407 10.5868 9.35884 11.0279 9.07512C11.4836 8.78202 12.0234 8.33366 12.8009 7.68577L14.6 6.18654C14.8651 5.96556 15.2592 6.00139 15.4802 6.26656C15.7012 6.53173 15.6654 6.92584 15.4002 7.14682L13.5698 8.67216C12.8312 9.2877 12.2325 9.78661 11.7041 10.1264C11.1537 10.4805 10.6176 10.7041 10.0001 10.7041C9.38252 10.7041 8.84648 10.4804 8.29606 10.1264C7.76768 9.78661 7.16901 9.28771 6.43038 8.67216L4.59997 7.14682C4.33479 6.92584 4.29897 6.53173 4.51994 6.26656Z" fill="#2D2D2D"/>
</svg>
