<svg width="35" height="322" viewBox="0 0 35 322" fill="none" xmlns="http://www.w3.org/2000/svg">
<path d="M33.8672 30.5383L0.839844 30.5383L0.839843 21.4674L20.9353 21.4674L0.839843 9.27987L0.839842 0.813713L33.8672 0.813712L33.8672 9.88462L13.7717 9.88462L33.8672 21.9326L33.8672 30.5383Z" fill="#F7F7F7"/>
<path d="M33.8672 66.2894L0.839844 66.2894L0.839843 57.2186L20.9353 57.2186L0.839843 45.031L0.839842 36.5648L33.8672 36.5648L33.8672 45.6357L13.7717 45.6357L33.8672 57.6837L33.8672 66.2894Z" fill="#F7F7F7"/>
<path d="M0.839842 72.1506L33.8672 72.1506L33.8672 81.2215L20.9353 81.2215L20.9353 92.2926L33.8672 92.2926L33.8672 101.363L0.839844 101.363L0.839843 92.2926L13.0274 92.2926L13.0274 81.2215L0.839843 81.2215L0.839842 72.1506Z" fill="#F7F7F7"/>
<path d="M0.839843 124.761L0.839843 114.621L33.8672 104.108L33.8672 113.318L27.4013 115.318L27.4013 124.11L33.8672 126.064L33.8672 135.321L0.839843 124.761ZM21.354 116.76L9.72466 119.691L21.354 122.761L21.354 116.76Z" fill="#F7F7F7"/>
<path d="M33.8672 166.592L0.839844 166.592L0.839843 138.263L33.8672 138.263L33.8672 147.334L8.74779 147.334L8.74779 157.522L33.8672 157.522L33.8672 166.592Z" fill="#F7F7F7"/>
<path d="M33.8672 181.502L16.4697 181.502L28.7037 187.038L28.7037 191.875L16.4697 197.411L33.8672 197.411L33.8672 206.482L0.839844 206.482L0.839843 196.574L16.3766 189.456L0.839843 182.293L0.839842 172.431L33.8672 172.431L33.8672 181.502Z" fill="#F7F7F7"/>
<path d="M34.1463 227.166C34.1463 229.678 33.6811 231.957 32.7508 234.004C31.7894 236.05 30.5179 237.818 28.9364 239.307C27.3238 240.764 25.5251 241.896 23.5403 242.702C21.5246 243.478 19.4468 243.865 17.307 243.865C15.1052 243.865 13.0119 243.447 11.0272 242.609C9.04244 241.772 7.27478 240.609 5.7242 239.121C4.14261 237.601 2.90215 235.818 2.00281 233.771C1.10348 231.693 0.653808 229.429 0.653808 226.98C0.653808 224.468 1.13449 222.188 2.09585 220.142C3.02619 218.095 4.29767 216.343 5.91027 214.885C7.52287 213.427 9.33705 212.311 11.3528 211.536C13.3375 210.729 15.3843 210.326 17.4931 210.326C19.6639 210.326 21.7417 210.745 23.7264 211.582C25.7112 212.389 27.4943 213.552 29.0759 215.071C30.6265 216.56 31.8669 218.327 32.7973 220.374C33.6966 222.421 34.1463 224.685 34.1463 227.166ZM17.4001 234.655C18.5165 234.655 19.6019 234.5 20.6563 234.19C21.6797 233.88 22.61 233.414 23.4473 232.794C24.2536 232.174 24.9049 231.399 25.401 230.468C25.8662 229.507 26.0988 228.375 26.0988 227.073C26.0988 225.77 25.8507 224.638 25.3545 223.677C24.8583 222.715 24.1916 221.94 23.3543 221.351C22.4859 220.731 21.5401 220.281 20.5167 220.002C19.4623 219.692 18.3924 219.537 17.307 219.537C16.1906 219.537 15.1207 219.692 14.0973 220.002C13.0739 220.312 12.1591 220.777 11.3528 221.397C10.5155 222.018 9.86424 222.808 9.39907 223.77C8.9339 224.731 8.70131 225.848 8.70131 227.119C8.70131 228.422 8.9494 229.554 9.44559 230.515C9.94177 231.445 10.6085 232.221 11.4458 232.841C12.2521 233.461 13.1825 233.926 14.2369 234.236C15.2603 234.515 16.3147 234.655 17.4001 234.655Z" fill="#F7F7F7"/>
<path d="M33.8672 273.982L0.839844 273.982L0.839843 264.958L12.9809 264.958L12.9809 263.097L0.839843 254.584L0.839842 244.63L16.7953 256.259L33.8672 243.56L33.8672 254.538L21.2144 263.469L21.2144 264.958L33.8672 264.958L33.8672 273.982Z" fill="#F7F7F7"/>
<path d="M34.1463 305.3C34.1463 307.812 33.6811 310.092 32.7508 312.138C31.7894 314.185 30.5179 315.953 28.9364 317.441C27.3238 318.899 25.5251 320.031 23.5403 320.837C21.5246 321.612 19.4468 322 17.307 322C15.1052 322 13.0119 321.581 11.0272 320.744C9.04244 319.907 7.27478 318.744 5.7242 317.255C4.14261 315.736 2.90215 313.952 2.00281 311.906C1.10348 309.828 0.653808 307.564 0.653808 305.114C0.653808 302.602 1.13449 300.323 2.09585 298.276C3.02619 296.229 4.29767 294.477 5.91027 293.02C7.52287 291.562 9.33705 290.446 11.3528 289.67C13.3375 288.864 15.3843 288.461 17.4931 288.461C19.6639 288.461 21.7417 288.88 23.7264 289.717C25.7112 290.523 27.4943 291.686 29.0759 293.206C30.6265 294.694 31.8669 296.462 32.7973 298.509C33.6966 300.555 34.1463 302.819 34.1463 305.3ZM17.4001 312.79C18.5165 312.79 19.6019 312.635 20.6563 312.324C21.6797 312.014 22.61 311.549 23.4473 310.929C24.2536 310.309 24.9049 309.533 25.401 308.603C25.8662 307.642 26.0988 306.51 26.0988 305.207C26.0988 303.905 25.8507 302.773 25.3545 301.811C24.8583 300.85 24.1916 300.075 23.3543 299.486C22.4859 298.865 21.5401 298.416 20.5167 298.137C19.4623 297.826 18.3924 297.671 17.307 297.671C16.1906 297.671 15.1207 297.826 14.0973 298.137C13.0739 298.447 12.1591 298.912 11.3528 299.532C10.5155 300.152 9.86424 300.943 9.39907 301.905C8.9339 302.866 8.70131 303.982 8.70131 305.254C8.70131 306.556 8.9494 307.688 9.44559 308.65C9.94177 309.58 10.6085 310.355 11.4458 310.975C12.2521 311.596 13.1825 312.061 14.2369 312.371C15.2603 312.65 16.3147 312.79 17.4001 312.79Z" fill="#F7F7F7"/>
</svg>
