<svg width="24" height="20" viewBox="0 0 24 20" fill="none" xmlns="http://www.w3.org/2000/svg">
<path d="M0 2.2C0 1.20625 0.80625 0.400002 1.8 0.400002H12.6C13.5938 0.400002 14.4 1.20625 14.4 2.2V17.8C14.4 18.7938 13.5938 19.6 12.6 19.6H9V16.6C9 15.6063 8.19375 14.8 7.2 14.8C6.20625 14.8 5.4 15.6063 5.4 16.6V19.6H1.8C0.80625 19.6 0 18.7938 0 17.8V2.2ZM3 8.8C2.67 8.8 2.4 9.07 2.4 9.4V10.6C2.4 10.93 2.67 11.2 3 11.2H4.2C4.53 11.2 4.8 10.93 4.8 10.6V9.4C4.8 9.07 4.53 8.8 4.2 8.8H3ZM6 9.4V10.6C6 10.93 6.27 11.2 6.6 11.2H7.8C8.13 11.2 8.4 10.93 8.4 10.6V9.4C8.4 9.07 8.13 8.8 7.8 8.8H6.6C6.27 8.8 6 9.07 6 9.4ZM10.2 8.8C9.87 8.8 9.6 9.07 9.6 9.4V10.6C9.6 10.93 9.87 11.2 10.2 11.2H11.4C11.73 11.2 12 10.93 12 10.6V9.4C12 9.07 11.73 8.8 11.4 8.8H10.2ZM2.4 4.6V5.8C2.4 6.13 2.67 6.4 3 6.4H4.2C4.53 6.4 4.8 6.13 4.8 5.8V4.6C4.8 4.27 4.53 4 4.2 4H3C2.67 4 2.4 4.27 2.4 4.6ZM6.6 4C6.27 4 6 4.27 6 4.6V5.8C6 6.13 6.27 6.4 6.6 6.4H7.8C8.13 6.4 8.4 6.13 8.4 5.8V4.6C8.4 4.27 8.13 4 7.8 4H6.6ZM9.6 4.6V5.8C9.6 6.13 9.87 6.4 10.2 6.4H11.4C11.73 6.4 12 6.13 12 5.8V4.6C12 4.27 11.73 4 11.4 4H10.2C9.87 4 9.6 4.27 9.6 4.6ZM24 7.6V8.2C24 9.8575 22.6575 11.2 21 11.2H20.4V10.6C20.4 8.9425 21.7425 7.6 23.4 7.6H24ZM24 12.4C24 14.0575 22.6575 15.4 21 15.4H20.4V14.8C20.4 13.1425 21.7425 11.8 23.4 11.8H24V12.4ZM24 16.6C24 18.2575 22.6575 19.6 21 19.6H20.4V19C20.4 17.3425 21.7425 16 23.4 16H24V16.6ZM19.2 19V19.6H18.6C16.9425 19.6 15.6 18.2575 15.6 16.6V16H16.2C17.8575 16 19.2 17.3425 19.2 19ZM19.2 15.4H18.6C16.9425 15.4 15.6 14.0575 15.6 12.4V11.8H16.2C17.8575 11.8 19.2 13.1425 19.2 14.8V15.4ZM19.2 10.6V11.2H18.6C16.9425 11.2 15.6 9.8575 15.6 8.2V7.6H16.2C17.8575 7.6 19.2 8.9425 19.2 10.6ZM19.8 1.6C20.2987 1.6 20.7 2.00125 20.7 2.5V6.4C20.7 6.89875 20.2987 7.3 19.8 7.3C19.3013 7.3 18.9 6.89875 18.9 6.4V2.5C18.9 2.00125 19.3013 1.6 19.8 1.6ZM23.4 4V5.2C23.4 5.69875 22.9988 6.1 22.5 6.1C22.0013 6.1 21.6 5.69875 21.6 5.2V4C21.6 3.50125 22.0013 3.1 22.5 3.1C22.9988 3.1 23.4 3.50125 23.4 4ZM17.1 3.1C17.5988 3.1 18 3.50125 18 4V5.2C18 5.69875 17.5988 6.1 17.1 6.1C16.6013 6.1 16.2 5.69875 16.2 5.2V4C16.2 3.50125 16.6013 3.1 17.1 3.1Z" fill="#2D2D2D"/>
</svg>
